# xmcd CD database file
#
# Track frame offsets:
#	150
#	21792
#	45647
#	64797
#	81175
#	97447
#	113415
#	131185
#	151400
#	172557
#	198117
#
# Disc length: 2951 seconds
#
# Revision: 3
# Processed by: cddbd v1.4b42PL1 Copyright (c) Steve Scherf et al.
# Submitted via: CDex 1.40Beta6
#
DISCID=870b850b
DTITLE=Quiet Riot - Greatest Hits
DYEAR=1900
DGENRE=Rock
TTITLE0=Cum on feel the noize
TTITLE1=Bang your head (Metal Health)
TTITLE2=Slick black cadillac
TTITLE3=The wild and the young
TTITLE4=Mama we're all crazy now
TTITLE5=Party all night
TTITLE6=The joker
TTITLE7=Stay with me tonight
TTITLE8=Callin' the shots 
TTITLE9=Bang your head (Metal Health) (LIVE)
TTITLE10=Let's go crazy (LIVE)
EXTD=
EXTT0=
EXTT1=
EXTT2=
EXTT3=
EXTT4=
EXTT5=
EXTT6=
EXTT7=
EXTT8=
EXTT9=
EXTT10=
PLAYORDER=
